<svg id="e57CjDM9t6d1"
  xmlns="http://www.w3.org/2000/svg" viewBox="0 0 640 480" shape-rendering="geometricPrecision" text-rendering="geometricPrecision">
  <rect width="300" height="300" transform="matrix(1.6 0 0 1.6 80 0)" fill="rgb(0,0,0)"/>
  <rect width="50" height="50" transform="matrix(1 0 0 1 150 70)" fill="rgb(57,255,0)" />
  <rect width="50" height="50" transform="matrix(1 0 0 1 390 70)" fill="rgb(57,255,0)" />
  <rect width="50" height="50" transform="matrix(1 0 0 1 465 120)" fill="rgb(57,255,0"/>
  <rect width="50" height="50" transform="matrix(1 0 0 1 200 70)" fill="rgb(57,255,0)" />
  <rect width="50" height="50" transform="matrix(1 0 0 1 150 210)" fill="rgb(57,255,0"/>
  <rect width="50" height="50" transform="matrix(1 0 0 1 250 210)" fill="rgb(57,255,0"/>
  <rect width="50" height="50" transform="matrix(1 0 0 1 200 210)" fill="rgb(57,255,0"/>
  <rect width="50" height="50" transform="matrix(1 0 0 1 300 210)" fill="rgb(57,255,0"/>
  <rect width="50" height="50" transform="matrix(1 0 0 1 350 210)" fill="rgb(57,255,0"/>
  <rect width="50" height="50" transform="matrix(1 0 0 1 400 210)" fill="rgb(57,255,0"/>
  <rect width="50" height="50" transform="matrix(1 0 0 1 450 260)" fill="rgb(57,255,0"/>
  <rect width="50" height="50" transform="matrix(1 0 0 1 450 210)" fill="rgb(57,255,0"/>
  <rect width="50" height="50" transform="matrix(1 0 0 1 150 260)" fill="rgb(57,255,0"/>
  <rect width="50" height="50" transform="matrix(1 0 0 1 200 310)" fill="rgb(57,255,0"/>
  <rect width="50" height="50" transform="matrix(1 0 0 1 250 360)" fill="rgb(57,255,0"/>
  <rect width="50" height="50" transform="matrix(1 0 0 1 300 360)" fill="rgb(57,255,0"/>
  <rect width="50" height="50" transform="matrix(1 0 0 1 350 360)" fill="rgb(57,255,0"/>
  <rect width="50" height="50" transform="matrix(1 0 0 1 400 310)" fill="rgb(57,255,0"/>
  <rect width="50" height="50" transform="matrix(1 0 0 1 125 120)" fill="rgb(57,255,0"/>
  <rect width="50" height="50" transform="matrix(1 0 0 1 225 120)" fill="rgb(57,255,0"/>
  <rect width="50" height="50" transform="matrix(1 0 0 1 366 120)" fill="rgb(57,255,0"/>
  <rect width="50" height="50" transform="matrix(1 0 0 1 440 70)" fill="rgb(57,255,0)" />
</svg>